HIERARCHY
ROOT Hips
{
  OFFSET 0.000000 0.000000 0.000000
  CHANNELS 6 Xposition Yposition Zposition Zrotation Yrotation Xrotation
  JOINT Spine
  {
    OFFSET -0.021080 2.075730 -0.169808
    CHANNELS 3 Zrotation Yrotation Xrotation
    JOINT Spine1
    {
      OFFSET 0.050701 2.084387 -0.031413
      CHANNELS 3 Zrotation Yrotation Xrotation
      JOINT Spine2
      {
        OFFSET 0.059950 2.095031 0.048503
        CHANNELS 3 Zrotation Yrotation Xrotation
        JOINT Neck
        {
          OFFSET -0.107307 1.604075 0.313698
          CHANNELS 3 Zrotation Yrotation Xrotation
          JOINT Head
          {
            OFFSET 0.039111 1.691495 -0.141461
            CHANNELS 3 Zrotation Yrotation Xrotation
            End Site
            {
              OFFSET 0 0 0
            }
          }
        }
        JOINT LeftShoulder
        {
          OFFSET 3.523153 0.732192 -0.546943
          CHANNELS 3 Zrotation Yrotation Xrotation
          JOINT LeftArm
          {
            OFFSET 5.324620 -0.000000 -0.000000
            CHANNELS 3 Zrotation Yrotation Xrotation
            JOINT LeftForeArm
            {
              OFFSET 3.484020 -0.000000 -0.000000
              CHANNELS 3 Zrotation Yrotation Xrotation
              JOINT LeftHand
              {
                OFFSET 0.572476 -0.000000 -0.000000
                CHANNELS 3 Zrotation Yrotation Xrotation
                JOINT LeftHandIndex1
                {
                  OFFSET 0.461545 -0.000000 -0.000000
                  CHANNELS 3 Zrotation Yrotation Xrotation
                  End Site
                  {
                    OFFSET 0 0 0
                  }
                }
              }
            }
          }
        }
        JOINT RightShoulder
        {
          OFFSET -3.417658 0.935924 -0.100189
          CHANNELS 3 Zrotation Yrotation Xrotation
          JOINT RightArm
          {
            OFFSET -5.335890 -0.000000 -0.000000
            CHANNELS 3 Zrotation Yrotation Xrotation
            JOINT RightForeArm
            {
              OFFSET -3.641340 -0.000000 -0.000000
              CHANNELS 3 Zrotation Yrotation Xrotation
              JOINT RightHand
              {
                OFFSET -0.734811 -0.000000 -0.000000
                CHANNELS 3 Zrotation Yrotation Xrotation
                JOINT RightHandIndex1
                {
                  OFFSET -0.592424 -0.000000 -0.000000
                  CHANNELS 3 Zrotation Yrotation Xrotation
                  End Site
                  {
                    OFFSET 0 0 0
                  }
                }
              }
            }
          }
        }
      }
    }
  }
  JOINT LeftUpLeg
  {
    OFFSET 2.571388 -7.064838 0.000000
    CHANNELS 3 Zrotation Yrotation Xrotation
    JOINT LeftLeg
    {
      OFFSET 2.520174 -6.924128 0.000000
      CHANNELS 3 Zrotation Yrotation Xrotation
      JOINT LeftFoot
      {
        OFFSET 0.232946 -0.640014 2.102138
        CHANNELS 3 Zrotation Yrotation Xrotation
        JOINT LeftToeBase
        {
          OFFSET 0.000000 -0.000000 1.101390
          CHANNELS 3 Zrotation Yrotation Xrotation
          End Site
          {
            OFFSET 0 0 0
          }
        }
      }
    }
  }
  JOINT RightUpLeg
  {
    OFFSET -2.632579 -7.232958 0.000000
    CHANNELS 3 Zrotation Yrotation Xrotation
    JOINT RightLeg
    {
      OFFSET -2.547789 -6.999999 0.000000
      CHANNELS 3 Zrotation Yrotation Xrotation
      JOINT RightFoot
      {
        OFFSET -0.230669 -0.633756 2.121613
        CHANNELS 3 Zrotation Yrotation Xrotation
        JOINT RightToeBase
        {
          OFFSET -0.000000 -0.000000 1.110000
          CHANNELS 3 Zrotation Yrotation Xrotation
          End Site
          {
            OFFSET 0 0 0
          }
        }
      }
    }
  }
}
MOTION
Frames: 8
Frame Time: 0.00833333
-0.466543 16.832000 2.625930 544.082000 -126.043000 -545.990000 -19.584200 -4.252350 -7.869310 0.000000 0.000000 44.499200 -0.233140 0.000000 -25.909000 0.000000 0.000000 -16.391200 2.997580 -11.190800 -15.459200 0.000000 0.000000 57.164900 13.401100 0.000000 -9.866200 0.000000 0.000000 4.841820 -3.515310 0.692111 6.940060 4.849930 0.804469 -0.231292 7.002440 0.519058 -4.266790 -17.914500 -7.391800 -18.651100 6.292130 -2.608930 0.267203 0.000000 -0.000000 0.000000 13.807200 20.847000 54.299700 0.000000 0.000000 77.947500 13.120000 0.000000 -18.701600 0.000000 0.000000 7.125020 0.000000 -0.000000 0.000000 -85.965100 15.801500 -26.461300 0.000000 0.000000 64.521600 11.143900 0.000000 -17.024200 0.000000 0.000000 7.125020
-0.455710 16.872500 2.648790 544.342000 -126.314000 -546.287000 -19.813300 -4.455170 -7.632400 0.000000 0.000000 44.054400 -0.734313 0.000000 -25.234600 0.000000 0.000000 -15.888000 2.886400 -10.822200 -15.236400 0.000000 0.000000 57.004000 12.456800 0.000000 -9.844340 0.000000 0.000000 4.484740 -3.411480 0.227141 6.892420 4.689760 0.183586 -0.147147 6.833660 0.197010 -4.057480 -17.191500 -6.946470 -18.552700 6.215900 -2.428300 0.067560 0.000000 0.000000 0.000000 12.077900 18.715700 51.905000 0.000000 0.000000 79.596500 17.451900 0.000000 -15.204000 0.000000 0.000000 7.125020 0.000000 0.000000 0.000000 -85.330900 14.103000 -27.406800 0.000000 0.000000 64.108700 10.531500 0.000000 -17.747700 0.000000 0.000000 7.125020
-0.445097 16.909500 2.670240 544.619000 -126.560000 -546.589000 -20.033000 -4.632750 -7.407220 0.000000 0.000000 43.602900 -1.189100 0.000000 -24.583400 0.000000 0.000000 -15.891000 2.771150 -10.351000 -15.112000 0.000000 0.000000 56.980200 11.555800 0.000000 -9.601640 0.000000 0.000000 4.754470 -3.342620 -0.100994 6.862100 4.713510 -0.250356 -0.124017 6.862490 -0.024983 -3.953570 -17.209600 -6.694980 -18.341400 6.257820 -2.285660 -0.088435 0.000000 0.000000 0.000000 11.154700 16.319700 49.682700 0.000000 0.000000 81.127200 18.828700 0.000000 -14.011700 0.000000 0.000000 7.125020 0.000000 0.000000 0.000000 -84.043300 12.396700 -28.428800 0.000000 0.000000 63.877200 10.208500 0.000000 -18.645800 0.000000 0.000000 7.125020
-0.437484 16.950000 2.693220 544.865000 -126.423000 -546.693000 -20.192300 -4.590870 -7.272510 0.000000 0.000000 43.093800 -1.512220 0.000000 -23.987900 0.000000 0.000000 -15.843500 2.782250 -9.642010 -15.425000 0.000000 0.000000 57.092300 10.588800 0.000000 -9.331310 0.000000 0.000000 3.037810 -3.248600 -0.118289 6.609430 4.990280 -0.255194 -0.195927 7.102890 -0.028472 -3.885630 -18.238400 -6.743380 -17.992800 6.475190 -2.217160 -0.131232 -0.000000 0.000000 0.000000 11.228000 13.634800 47.829900 0.000000 0.000000 82.521200 18.473300 0.000000 -14.820200 0.000000 0.000000 7.125020 -0.000000 0.000000 0.000000 -81.915900 10.672800 -29.522200 0.000000 0.000000 63.667000 10.182600 0.000000 -19.619900 0.000000 0.000000 7.125020
-0.431188 16.992700 2.712880 545.302000 -125.716000 -546.819000 -20.454700 -4.319470 -7.167140 0.000000 0.000000 42.517900 -1.441310 0.000000 -23.491300 0.000000 0.000000 -15.997700 2.775910 -8.457300 -16.217100 0.000000 0.000000 57.314600 9.562210 0.000000 -8.807030 0.000000 0.000000 2.109550 -3.315570 0.055192 6.272600 5.140410 -0.019079 -0.273775 7.276730 0.091534 -3.812550 -18.594500 -6.684060 -17.894200 6.523890 -2.147130 -0.102613 0.000000 0.000000 0.000000 11.379700 10.921800 46.337900 0.000000 0.000000 83.698100 18.570200 0.000000 -15.041500 0.000000 0.000000 7.125020 0.000000 0.000000 0.000000 -79.941700 9.221500 -30.594800 0.000000 0.000000 63.673100 9.772640 0.000000 -20.745500 0.000000 0.000000 7.125020
-0.420511 17.032700 2.733710 545.737000 -125.016000 -547.091000 -20.741300 -4.119870 -6.851900 0.000000 0.000000 41.839900 -1.344570 0.000000 -23.064300 0.000000 0.000000 -16.584700 2.674290 -7.336820 -16.932800 0.000000 0.000000 57.635500 8.594660 0.000000 -7.929840 0.000000 0.000000 3.106900 -3.284040 0.149614 6.061270 5.162600 0.110059 -0.219087 7.266240 0.149231 -3.655700 -18.269900 -6.494160 -18.297800 6.372340 -2.038810 0.046286 -0.000000 -0.000000 0.000000 11.406500 8.330230 44.903900 0.000000 0.000000 84.661600 18.881600 0.000000 -14.632800 0.000000 0.000000 7.125020 -0.000000 -0.000000 0.000000 -78.177800 8.068770 -31.365700 0.000000 0.000000 63.926600 9.131770 0.000000 -21.180500 0.000000 0.000000 7.125020
-0.401533 17.067500 2.763280 546.016000 -124.978000 -547.453000 -21.051700 -4.607730 -6.361100 0.000000 0.000000 41.086800 -1.452180 0.000000 -22.544600 0.000000 0.000000 -16.390400 2.486700 -6.782740 -17.220500 0.000000 0.000000 58.024400 7.582500 0.000000 -7.142670 0.000000 0.000000 4.100800 -2.902760 -0.121722 6.024270 5.123880 -0.232148 -0.103643 7.030690 -0.038806 -3.463510 -17.905900 -6.163980 -18.654100 6.229190 -1.852370 0.148888 -0.000000 -0.000000 0.000000 11.312500 5.777460 43.135200 0.000000 0.000000 85.419200 19.008100 0.000000 -15.088000 0.000000 0.000000 7.125020 -0.000000 -0.000000 0.000000 -76.565000 7.290720 -31.803500 0.000000 0.000000 64.186400 8.844960 0.000000 -21.380400 0.000000 0.000000 7.125020
-0.388725 17.102400 2.786190 546.409000 -124.585000 -547.881000 -21.344800 -4.745470 -5.823810 0.000000 0.000000 40.258200 -1.608990 0.000000 -22.074400 0.000000 0.000000 -16.370500 2.376630 -6.015750 -17.747900 0.000000 0.000000 58.475900 6.482890 0.000000 -6.456540 0.000000 0.000000 2.931750 -2.733270 -0.255635 6.001390 5.113010 -0.403644 -0.018709 6.933440 -0.133818 -3.338410 -17.628700 -5.847160 -18.691300 6.127850 -1.691290 0.139317 0.000000 0.000000 0.000000 11.392400 3.207420 41.338100 0.000000 0.000000 86.159900 19.102400 0.000000 -15.639700 0.000000 0.000000 7.125020 0.000000 0.000000 0.000000 -74.930900 6.511850 -32.163000 0.000000 0.000000 64.367300 8.980060 0.000000 -21.923000 0.000000 0.000000 7.125020
